<svg id="Layer_1" data-name="Layer 1" xmlns="http://www.w3.org/2000/svg" viewBox="0 0 36 36"><defs><style>.cls-1{fill:#0b4a99;}</style></defs><path class="cls-1" d="M32.81,28.82l-7.64-3.91,3.91-7.64.67.34a7.84,7.84,0,0,1,3.4,10.54Zm-5.62-4.57,4.92,2.52a6.34,6.34,0,0,0-2.4-7.44Z"/><path class="cls-1" d="M22.31,36A10.23,10.23,0,1,1,27,16.67l.68.34-4.32,8.44,8.43,4.31-.34.67A10.23,10.23,0,0,1,22.31,36Zm0-18.94A8.72,8.72,0,1,0,29.72,30.4l-8.41-4.3,4.3-8.4A8.5,8.5,0,0,0,22.34,17.06Z"/><path class="cls-1" d="M4.33,14.5a2.35,2.35,0,1,1,2.35-2.35A2.35,2.35,0,0,1,4.33,14.5Zm0-3.19a.84.84,0,1,0,.84.84A.85.85,0,0,0,4.33,11.31Z"/><path class="cls-1" d="M10.13,9a2.35,2.35,0,1,1,2.35-2.34A2.34,2.34,0,0,1,10.13,9Zm0-3.18a.84.84,0,1,0,.84.84A.83.83,0,0,0,10.13,5.81Z"/><path class="cls-1" d="M15.94,11.68a2.35,2.35,0,1,1,2.35-2.34A2.34,2.34,0,0,1,15.94,11.68Zm0-3.18a.84.84,0,1,0,.84.84A.85.85,0,0,0,15.94,8.5Z"/><path class="cls-1" d="M21.77,4.69a2.35,2.35,0,1,1,2.34-2.34A2.35,2.35,0,0,1,21.77,4.69Zm0-3.18a.84.84,0,1,0,.84.84A.84.84,0,0,0,21.77,1.51Z"/><rect class="cls-1" x="15.91" y="4.98" width="5.98" height="1.51" transform="translate(2.71 17.05) rotate(-51.81)"/><rect class="cls-1" x="12.2" y="6.5" width="1.51" height="3.27" transform="translate(0.05 16.35) rotate(-64.62)"/><rect class="cls-1" x="4.7" y="8.51" width="4.82" height="1.51" transform="translate(-4.41 7.33) rotate(-42.96)"/><rect class="cls-1" x="3.49" y="16.05" width="1.51" height="9.49"/><rect class="cls-1" x="15.01" y="12.37" width="1.51" height="3.77"/><rect class="cls-1" x="20.93" y="7.81" width="1.51" height="6.38"/><rect class="cls-1" x="9.21" y="11.38" width="1.51" height="14.45"/></svg>