<?xml version="1.0" encoding="utf-8"?>
<!-- Generator: Adobe Illustrator 25.0.0, SVG Export Plug-In . SVG Version: 6.00 Build 0)  -->
<svg version="1.1" id="Layer_1" xmlns="http://www.w3.org/2000/svg" xmlns:xlink="http://www.w3.org/1999/xlink" x="0px" y="0px"
	 viewBox="0 0 36 36" style="enable-background:new 0 0 36 36;" xml:space="preserve">
<style type="text/css">
	.st0{fill:#CB1618;}
	.st1{fill:#185ABD;}
	.st2{fill:#D83039;}
	.st3{fill:#103F91;}
	.st4{fill:#185C37;}
	.st5{fill:#33C481;}
	.st6{fill:#107C41;}
	.st7{fill:#21A366;}
	.st8{fill:#0B4A99;}
	.st9{fill:none;}
	.st10{fill:#FFFFFF;}
	.st11{fill:#41A5EE;}
	.st12{fill:#2B7CD3;}
	.st13{opacity:0.5;enable-background:new    ;}
	.st14{fill:url(#SVGID_1_);}
	.st15{fill:url(#SVGID_2_);}
	.st16{fill:url(#SVGID_3_);}
	.st17{fill:url(#SVGID_4_);}
	.st18{fill:#E24951;}
	.st19{fill-rule:evenodd;clip-rule:evenodd;}
	.st20{fill:#262625;}
	.st21{fill:none;stroke:#000000;stroke-width:0.75;stroke-miterlimit:10;}
	.st22{fill:none;stroke:#000000;stroke-width:1.2;stroke-miterlimit:10;}
	.st23{fill-rule:evenodd;clip-rule:evenodd;fill:#0B4A99;}
	.st24{fill:none;stroke:#231F20;}
	.st25{fill:none;stroke:#0071C5;stroke-width:1.3;stroke-linecap:round;stroke-miterlimit:10;}
	.st26{fill:none;stroke:#F0AB00;stroke-width:1.3;stroke-miterlimit:10;}
	.st27{fill:#1C55A6;}
	.st28{fill:none;stroke:#1C55A6;stroke-width:1.3;stroke-linecap:round;}
	.st29{fill-rule:evenodd;clip-rule:evenodd;fill:none;stroke:#1C55A6;stroke-width:1.3;stroke-linecap:round;}
	.st30{fill:none;stroke:#1C55A6;stroke-width:1.3;stroke-linecap:round;stroke-miterlimit:10;}
	.st31{fill-rule:evenodd;clip-rule:evenodd;fill:#213266;}
	.st32{fill-rule:evenodd;clip-rule:evenodd;fill:#EE3D23;}
	.st33{fill-rule:evenodd;clip-rule:evenodd;fill:#FFFFFF;}
</style>
<g>
	<g>
		<path class="st8" d="M34,34.8H10.9c-1.1,0-2-0.9-2-2v-8.3c0-0.4,0.3-0.7,0.7-0.7c0.4,0,0.7,0.3,0.7,0.7v8.3c0,0.3,0.3,0.6,0.6,0.6
			H34c0.4,0,0.6-0.3,0.6-0.6v-23l-6.9-7.3H10.9c-0.4,0-0.6,0.3-0.6,0.6v11.9c0,0.4-0.3,0.7-0.7,0.7c-0.4,0-0.7-0.3-0.7-0.7V3.2
			c0-1.1,0.9-2,2-2h17.4L36,9.3v23.5C36,33.9,35.1,34.8,34,34.8z"/>
	</g>
	<g>
		<path class="st8" d="M35.3,10.4h-5.8c-1.1,0-2.1-0.9-2.1-2.1V1.9h1.3v6.5c0,0.5,0.4,0.8,0.8,0.8h5.8V10.4z"/>
	</g>
	<g>
		<path class="st8" d="M24.9,20.8H0.7c-0.4,0-0.7-0.3-0.7-0.7s0.3-0.7,0.7-0.7h24.2c0.4,0,0.7,0.3,0.7,0.7S25.3,20.8,24.9,20.8z"/>
	</g>
	<g>
		<path class="st8" d="M19.5,27.1c-0.2,0-0.3-0.1-0.5-0.2c-0.3-0.3-0.3-0.7,0-1l5.8-5.8l-5.8-5.8c-0.3-0.3-0.3-0.7,0-1
			c0.3-0.3,0.7-0.3,1,0l6.2,6.3c0.3,0.3,0.3,0.8,0,1.1L20,26.9C19.9,27,19.7,27.1,19.5,27.1z M25.2,20.5L25.2,20.5L25.2,20.5z"/>
	</g>
</g>
</svg>
