<svg id="Layer_1" data-name="Layer 1" xmlns="http://www.w3.org/2000/svg" viewBox="0 0 36 36"><defs><style>.cls-1{fill:#0b4a99;}</style></defs><path class="cls-1" d="M15.18,23.42A5.35,5.35,0,0,1,15,12.73h.27V14H15a4.13,4.13,0,0,0,.34,8.25l.05,1.22Z"/><path class="cls-1" d="M16.27,28h-.5A10.23,10.23,0,0,1,6.23,17.53a9.61,9.61,0,0,1,9.9-9.34l0,1.22a8.4,8.4,0,0,0-8.65,8.14,9,9,0,0,0,8.36,9.19h.46Z"/><path class="cls-1" d="M13.66,34h-.13l-2.61-.57-.13-.13a2,2,0,0,1-.7-1.3V30.38a3.59,3.59,0,0,0-.74-.67.47.47,0,0,0-.47,0l-1.16.84a1.36,1.36,0,0,1-1.7,0l-.14-.11L4.19,28.78A1.44,1.44,0,0,1,3.83,27l.72-1.42a4,4,0,0,0-.35-1,.41.41,0,0,0-.31-.18H2.3a1.61,1.61,0,0,1-1.42-.85l0-.12L.14,21a1.57,1.57,0,0,1-.1-.26,1.24,1.24,0,0,1,.81-1.5l1.36-.67.19-.11v-.58a.39.39,0,0,0-.21-.34L.81,16.88a1.26,1.26,0,0,1-.74-1,.83.83,0,0,1,.16-.59l.53-2.45.13-.13a1.92,1.92,0,0,1,1.3-.7H3.77a3.06,3.06,0,0,0,.67-.71.45.45,0,0,0,0-.47L3.64,9.72a1.38,1.38,0,0,1-.1-1.63l.14-.22,1.7-1.72a1.18,1.18,0,0,1,.89-.51,1.7,1.7,0,0,1,.94.19l1.3.63.36-.13a3.18,3.18,0,0,1,.71-.22.76.76,0,0,0,.06-.27V4.25a1.56,1.56,0,0,1,.86-1.42l.11,0L13,2.1a1.26,1.26,0,0,1,1.57.62l.66.86.09.17H16V5h-.77c-.3,0-.72-.14-1.05-.81l-.68-.9-.14,0L11,4a.36.36,0,0,0-.15.29v1.6c0,.62-.35,1.48-1.14,1.48l-.4.15c-.45.17-1,.37-1.33.1L6.65,6.92a.48.48,0,0,0-.3-.06L6.3,7,4.63,8.65a2.06,2.06,0,0,0-.1.25L4.62,9l.87,1.24a1.66,1.66,0,0,1,0,1.68c-.17.39-1,1.37-1.75,1.37H2.19a.83.83,0,0,0-.31.22l-.5,2.3,1.37.68a1.61,1.61,0,0,1,.87,1.41v.72c0,.61-.6.93-.85,1.07l-1.53.74.05.07v.12L2,23a.38.38,0,0,0,.31.16H3.91A1.56,1.56,0,0,1,5.3,24c.61,1.33.48,1.84.33,2.12l-.7,1.39a.49.49,0,0,0,0,.28l.1.07,1.68,1.67c.15.08.21.1.24.09L7,29.54l1.22-.87a1.74,1.74,0,0,1,1.71,0c.28.16,1.37,1,1.37,1.75V32a1,1,0,0,0,.23.31l2.17.48a.73.73,0,0,0,.21-.06l.77-1.63a1.58,1.58,0,0,1,1.44-.87l0,1.22a.31.31,0,0,0-.31.19L15.13,33C15,33.68,14.23,34,13.66,34ZM15.4,3.79Z"/><rect class="cls-1" x="18.02" y="4.21" width="1.91" height="1.91"/><rect class="cls-1" x="18.69" y="9.41" width="1.99" height="1.99"/><rect class="cls-1" x="23.19" y="8.7" width="1.99" height="1.99"/><rect class="cls-1" x="21.76" y="14.54" width="1.99" height="1.99"/><rect class="cls-1" x="25.75" y="12.08" width="1.99" height="1.99"/><rect class="cls-1" x="30.49" y="14.09" width="1.99" height="1.99"/><rect class="cls-1" x="29" y="8.11" width="1.99" height="1.99"/><rect class="cls-1" x="25.34" y="5.3" width="1.99" height="1.99"/><rect class="cls-1" x="34.01" y="17.34" width="1.99" height="1.99"/><rect class="cls-1" x="25.63" y="17.22" width="1.99" height="1.99"/><rect class="cls-1" x="29.85" y="20.31" width="1.99" height="1.99"/><rect class="cls-1" x="33.12" y="9.15" width="1.99" height="1.99"/><rect class="cls-1" x="24.51" y="21.89" width="1.99" height="1.99"/><rect class="cls-1" x="27.84" y="23.29" width="1.99" height="1.99"/><rect class="cls-1" x="20.89" y="20.14" width="1.99" height="1.99"/><rect class="cls-1" x="16.92" y="15.88" width="1.99" height="1.99"/><rect class="cls-1" x="16.92" y="22.69" width="1.99" height="1.99"/><rect class="cls-1" x="17.98" y="28.48" width="1.99" height="1.99"/><rect class="cls-1" x="21.6" y="26.77" width="1.99" height="1.99"/></svg>